<?xml version="1.0" encoding="utf-8"?>
<!-- Generator: Adobe Illustrator 16.0.4, SVG Export Plug-In . SVG Version: 6.00 Build 0)  -->
<!DOCTYPE svg PUBLIC "-//W3C//DTD SVG 1.1//EN" "http://www.w3.org/Graphics/SVG/1.1/DTD/svg11.dtd">
<svg version="1.1" id="Layer_1" xmlns="http://www.w3.org/2000/svg" xmlns:xlink="http://www.w3.org/1999/xlink" x="0px" y="0px"
	 width="3.96px" height="2.419px" viewBox="12.021 12.791 3.96 2.419" enable-background="new 12.021 12.791 3.96 2.419"
	 xml:space="preserve">
<g>
	<path d="M14.308,12.922L14.308,12.922c0.176,0.177,0.176,0.439,0,0.616l-1.54,1.54
		c-0.177,0.176-0.439,0.176-0.615,0l0,0c-0.177-0.177-0.177-0.439,0-0.616l1.54-1.54C13.869,12.747,14.132,12.747,14.308,12.922z"/>
	<path d="M13.693,12.922L13.693,12.922c-0.176,0.177-0.176,0.439,0,0.616l1.541,1.54
		c0.176,0.176,0.439,0.176,0.615,0l0,0c0.176-0.177,0.176-0.439,0-0.616l-1.541-1.54C14.132,12.747,13.869,12.747,13.693,12.922z"/>
</g>
</svg>
